<svg width="20" height="20" viewBox="0 0 20 20" fill="none" xmlns="http://www.w3.org/2000/svg">
<path d="M7.5 10C7.5 11.3833 8.61667 12.5 10 12.5C11.3833 12.5 12.5 11.3833 12.5 10C12.5 8.61667 11.3833 7.5 10 7.5C8.61667 7.5 7.5 8.61667 7.5 10ZM10.8333 10C10.8333 10.4583 10.4583 10.8333 10 10.8333C9.54167 10.8333 9.16667 10.4583 9.16667 10C9.16667 9.54167 9.54167 9.16667 10 9.16667C10.4583 9.16667 10.8333 9.54167 10.8333 10Z" fill="#8BC34A"/>
<path d="M6.66667 8.33317V6.6665H4.24167C5.39167 4.67484 7.54167 3.33317 10 3.33317C13.1 3.33317 15.7083 5.4665 16.45 8.33317H18.1667C17.3917 4.53317 14.0333 1.6665 10 1.6665C7.275 1.6665 4.85 2.98317 3.33333 5.00817V3.33317H1.66667V8.33317H6.66667ZM13.3333 11.6665V13.3332H15.7583C14.6083 15.3248 12.4583 16.6665 10 16.6665C6.9 16.6665 4.29167 14.5332 3.55 11.6665H1.83333C2.60833 15.4665 5.96667 18.3332 10 18.3332C12.725 18.3332 15.15 17.0165 16.6667 14.9915V16.6665H18.3333V11.6665H13.3333Z" fill="#8BC34A"/>
</svg>
